<mxfile host="app.diagrams.net" modified="2023-08-28T05:04:35.177Z" agent="Mozilla/5.0 (X11; Ubuntu; Linux x86_64; rv:109.0) Gecko/20100101 Firefox/116.0" etag="IrFDyiMX9_AWN8ju5jpt" version="21.6.8" type="device">
  <diagram name="Page-1" id="QePL_o_GywGE-rD1kDqN">
    <mxGraphModel dx="1362" dy="767" grid="1" gridSize="10" guides="1" tooltips="1" connect="1" arrows="1" fold="1" page="1" pageScale="1" pageWidth="850" pageHeight="1100" math="0" shadow="0">
      <root>
        <mxCell id="0" />
        <mxCell id="1" parent="0" />
        <mxCell id="jiv7oWGwMIpdENpBrjZ7-1" value="" style="sketch=0;points=[[0,0,0],[0.25,0,0],[0.5,0,0],[0.75,0,0],[1,0,0],[0,1,0],[0.25,1,0],[0.5,1,0],[0.75,1,0],[1,1,0],[0,0.25,0],[0,0.5,0],[0,0.75,0],[1,0.25,0],[1,0.5,0],[1,0.75,0]];outlineConnect=0;fontColor=#232F3E;gradientColor=#60A337;gradientDirection=north;fillColor=#277116;strokeColor=#ffffff;dashed=0;verticalLabelPosition=bottom;verticalAlign=top;align=center;html=1;fontSize=12;fontStyle=0;aspect=fixed;shape=mxgraph.aws4.resourceIcon;resIcon=mxgraph.aws4.s3;" parent="1" vertex="1">
          <mxGeometry x="120" y="460" width="78" height="78" as="geometry" />
        </mxCell>
        <mxCell id="jiv7oWGwMIpdENpBrjZ7-2" value="" style="sketch=0;points=[[0,0,0],[0.25,0,0],[0.5,0,0],[0.75,0,0],[1,0,0],[0,1,0],[0.25,1,0],[0.5,1,0],[0.75,1,0],[1,1,0],[0,0.25,0],[0,0.5,0],[0,0.75,0],[1,0.25,0],[1,0.5,0],[1,0.75,0]];outlineConnect=0;fontColor=#232F3E;gradientColor=#F78E04;gradientDirection=north;fillColor=#D05C17;strokeColor=#ffffff;dashed=0;verticalLabelPosition=bottom;verticalAlign=top;align=center;html=1;fontSize=12;fontStyle=0;aspect=fixed;shape=mxgraph.aws4.resourceIcon;resIcon=mxgraph.aws4.lambda;" parent="1" vertex="1">
          <mxGeometry x="190" y="310" width="78" height="78" as="geometry" />
        </mxCell>
        <mxCell id="jiv7oWGwMIpdENpBrjZ7-3" value="" style="sketch=0;points=[[0,0,0],[0.25,0,0],[0.5,0,0],[0.75,0,0],[1,0,0],[0,1,0],[0.25,1,0],[0.5,1,0],[0.75,1,0],[1,1,0],[0,0.25,0],[0,0.5,0],[0,0.75,0],[1,0.25,0],[1,0.5,0],[1,0.75,0]];outlineConnect=0;fontColor=#232F3E;gradientColor=#60A337;gradientDirection=north;fillColor=#277116;strokeColor=#ffffff;dashed=0;verticalLabelPosition=bottom;verticalAlign=top;align=center;html=1;fontSize=12;fontStyle=0;aspect=fixed;shape=mxgraph.aws4.resourceIcon;resIcon=mxgraph.aws4.s3;" parent="1" vertex="1">
          <mxGeometry x="260" y="460" width="78" height="78" as="geometry" />
        </mxCell>
        <mxCell id="jiv7oWGwMIpdENpBrjZ7-4" value="Raw Data" style="text;html=1;align=center;verticalAlign=middle;resizable=0;points=[];autosize=1;strokeColor=none;fillColor=none;" parent="1" vertex="1">
          <mxGeometry x="119" y="538" width="80" height="30" as="geometry" />
        </mxCell>
        <mxCell id="jiv7oWGwMIpdENpBrjZ7-5" value="Processed Data" style="text;html=1;align=center;verticalAlign=middle;resizable=0;points=[];autosize=1;strokeColor=none;fillColor=none;" parent="1" vertex="1">
          <mxGeometry x="244" y="538" width="110" height="30" as="geometry" />
        </mxCell>
        <mxCell id="jiv7oWGwMIpdENpBrjZ7-6" value="" style="endArrow=classic;html=1;rounded=0;entryX=0.25;entryY=1;entryDx=0;entryDy=0;entryPerimeter=0;exitX=0.5;exitY=0;exitDx=0;exitDy=0;exitPerimeter=0;" parent="1" source="jiv7oWGwMIpdENpBrjZ7-1" target="jiv7oWGwMIpdENpBrjZ7-2" edge="1">
          <mxGeometry width="50" height="50" relative="1" as="geometry">
            <mxPoint x="160" y="450" as="sourcePoint" />
            <mxPoint x="204" y="388" as="targetPoint" />
          </mxGeometry>
        </mxCell>
        <mxCell id="jiv7oWGwMIpdENpBrjZ7-7" value="" style="endArrow=classic;html=1;rounded=0;entryX=0.5;entryY=0;entryDx=0;entryDy=0;entryPerimeter=0;exitX=0.75;exitY=1;exitDx=0;exitDy=0;exitPerimeter=0;" parent="1" source="jiv7oWGwMIpdENpBrjZ7-2" target="jiv7oWGwMIpdENpBrjZ7-3" edge="1">
          <mxGeometry width="50" height="50" relative="1" as="geometry">
            <mxPoint x="260" y="390" as="sourcePoint" />
            <mxPoint x="300" y="450" as="targetPoint" />
          </mxGeometry>
        </mxCell>
        <mxCell id="jiv7oWGwMIpdENpBrjZ7-9" value="" style="sketch=0;points=[[0,0,0],[0.25,0,0],[0.5,0,0],[0.75,0,0],[1,0,0],[0,1,0],[0.25,1,0],[0.5,1,0],[0.75,1,0],[1,1,0],[0,0.25,0],[0,0.5,0],[0,0.75,0],[1,0.25,0],[1,0.5,0],[1,0.75,0]];outlineConnect=0;fontColor=#232F3E;gradientColor=#60A337;gradientDirection=north;fillColor=#277116;strokeColor=#ffffff;dashed=0;verticalLabelPosition=bottom;verticalAlign=top;align=center;html=1;fontSize=12;fontStyle=0;aspect=fixed;shape=mxgraph.aws4.resourceIcon;resIcon=mxgraph.aws4.s3;" parent="1" vertex="1">
          <mxGeometry x="565.25" y="794" width="78" height="78" as="geometry" />
        </mxCell>
        <mxCell id="jiv7oWGwMIpdENpBrjZ7-10" value="" style="outlineConnect=0;dashed=0;verticalLabelPosition=bottom;verticalAlign=top;align=center;html=1;shape=mxgraph.aws3.ec2;fillColor=#F58534;gradientColor=none;" parent="1" vertex="1">
          <mxGeometry x="566.75" y="612" width="76.5" height="93" as="geometry" />
        </mxCell>
        <mxCell id="jiv7oWGwMIpdENpBrjZ7-11" value="MLflow Host" style="text;html=1;strokeColor=none;fillColor=none;align=center;verticalAlign=middle;whiteSpace=wrap;rounded=0;rotation=15;" parent="1" vertex="1">
          <mxGeometry x="510" y="690" width="90" height="30" as="geometry" />
        </mxCell>
        <mxCell id="jiv7oWGwMIpdENpBrjZ7-13" value="" style="endArrow=classic;startArrow=classic;html=1;rounded=0;exitX=0.5;exitY=0;exitDx=0;exitDy=0;exitPerimeter=0;entryX=0.5;entryY=1;entryDx=0;entryDy=0;entryPerimeter=0;" parent="1" source="jiv7oWGwMIpdENpBrjZ7-9" target="jiv7oWGwMIpdENpBrjZ7-10" edge="1">
          <mxGeometry width="50" height="50" relative="1" as="geometry">
            <mxPoint x="604.5" y="752" as="sourcePoint" />
            <mxPoint x="604.5" y="695" as="targetPoint" />
          </mxGeometry>
        </mxCell>
        <mxCell id="jiv7oWGwMIpdENpBrjZ7-14" value="Model Registry" style="text;html=1;strokeColor=none;fillColor=none;align=center;verticalAlign=middle;whiteSpace=wrap;rounded=0;" parent="1" vertex="1">
          <mxGeometry x="550" y="872" width="110" height="30" as="geometry" />
        </mxCell>
        <mxCell id="jiv7oWGwMIpdENpBrjZ7-15" value="" style="sketch=0;outlineConnect=0;fontColor=#232F3E;gradientColor=none;fillColor=#D45B07;strokeColor=none;dashed=0;verticalLabelPosition=bottom;verticalAlign=top;align=center;html=1;fontSize=12;fontStyle=0;aspect=fixed;pointerEvents=1;shape=mxgraph.aws4.g4dn;" parent="1" vertex="1">
          <mxGeometry x="510" y="460" width="80" height="80" as="geometry" />
        </mxCell>
        <mxCell id="jiv7oWGwMIpdENpBrjZ7-16" value="Training" style="text;html=1;strokeColor=none;fillColor=none;align=center;verticalAlign=middle;whiteSpace=wrap;rounded=0;rotation=0;" parent="1" vertex="1">
          <mxGeometry x="520" y="430" width="60" height="30" as="geometry" />
        </mxCell>
        <mxCell id="jiv7oWGwMIpdENpBrjZ7-17" value="" style="endArrow=classic;startArrow=classic;html=1;rounded=0;" parent="1" source="jiv7oWGwMIpdENpBrjZ7-10" target="jiv7oWGwMIpdENpBrjZ7-15" edge="1">
          <mxGeometry width="50" height="50" relative="1" as="geometry">
            <mxPoint x="620" y="602" as="sourcePoint" />
            <mxPoint x="600" y="512" as="targetPoint" />
          </mxGeometry>
        </mxCell>
        <mxCell id="jiv7oWGwMIpdENpBrjZ7-18" value="" style="sketch=0;points=[[0,0,0],[0.25,0,0],[0.5,0,0],[0.75,0,0],[1,0,0],[0,1,0],[0.25,1,0],[0.5,1,0],[0.75,1,0],[1,1,0],[0,0.25,0],[0,0.5,0],[0,0.75,0],[1,0.25,0],[1,0.5,0],[1,0.75,0]];outlineConnect=0;fontColor=#232F3E;gradientColor=#4AB29A;gradientDirection=north;fillColor=#116D5B;strokeColor=#ffffff;dashed=0;verticalLabelPosition=bottom;verticalAlign=top;align=center;html=1;fontSize=12;fontStyle=0;aspect=fixed;shape=mxgraph.aws4.resourceIcon;resIcon=mxgraph.aws4.sagemaker;" parent="1" vertex="1">
          <mxGeometry x="750" y="619.5" width="78" height="78" as="geometry" />
        </mxCell>
        <mxCell id="jiv7oWGwMIpdENpBrjZ7-19" value="" style="endArrow=classic;html=1;rounded=0;entryX=0;entryY=0.5;entryDx=0;entryDy=0;entryPerimeter=0;exitX=1;exitY=0.5;exitDx=0;exitDy=0;exitPerimeter=0;" parent="1" source="jiv7oWGwMIpdENpBrjZ7-10" target="jiv7oWGwMIpdENpBrjZ7-18" edge="1">
          <mxGeometry width="50" height="50" relative="1" as="geometry">
            <mxPoint x="650" y="672" as="sourcePoint" />
            <mxPoint x="740" y="662" as="targetPoint" />
          </mxGeometry>
        </mxCell>
        <mxCell id="jiv7oWGwMIpdENpBrjZ7-20" value="Inference Endpoint" style="text;html=1;strokeColor=none;fillColor=none;align=center;verticalAlign=middle;whiteSpace=wrap;rounded=0;" parent="1" vertex="1">
          <mxGeometry x="750" y="697.5" width="80" height="30" as="geometry" />
        </mxCell>
        <mxCell id="jiv7oWGwMIpdENpBrjZ7-22" value="" style="endArrow=classic;html=1;rounded=0;entryX=0.5;entryY=0;entryDx=0;entryDy=0;entryPerimeter=0;exitX=0.5;exitY=1;exitDx=0;exitDy=0;exitPerimeter=0;" parent="1" source="a2bQ8DpLGYZSekiH0dF5-1" target="jiv7oWGwMIpdENpBrjZ7-2" edge="1">
          <mxGeometry width="50" height="50" relative="1" as="geometry">
            <mxPoint x="229" y="250" as="sourcePoint" />
            <mxPoint x="310" y="250" as="targetPoint" />
          </mxGeometry>
        </mxCell>
        <mxCell id="a2bQ8DpLGYZSekiH0dF5-1" value="" style="sketch=0;points=[[0,0,0],[0.25,0,0],[0.5,0,0],[0.75,0,0],[1,0,0],[0,1,0],[0.25,1,0],[0.5,1,0],[0.75,1,0],[1,1,0],[0,0.25,0],[0,0.5,0],[0,0.75,0],[1,0.25,0],[1,0.5,0],[1,0.75,0]];outlineConnect=0;fontColor=#232F3E;gradientColor=#FF4F8B;gradientDirection=north;fillColor=#BC1356;strokeColor=#ffffff;dashed=0;verticalLabelPosition=bottom;verticalAlign=top;align=center;html=1;fontSize=12;fontStyle=0;aspect=fixed;shape=mxgraph.aws4.resourceIcon;resIcon=mxgraph.aws4.eventbridge;" parent="1" vertex="1">
          <mxGeometry x="190" y="170" width="78" height="78" as="geometry" />
        </mxCell>
        <mxCell id="a2bQ8DpLGYZSekiH0dF5-2" value="" style="sketch=0;points=[[0,0,0],[0.25,0,0],[0.5,0,0],[0.75,0,0],[1,0,0],[0,1,0],[0.25,1,0],[0.5,1,0],[0.75,1,0],[1,1,0],[0,0.25,0],[0,0.5,0],[0,0.75,0],[1,0.25,0],[1,0.5,0],[1,0.75,0]];outlineConnect=0;fontColor=#232F3E;gradientColor=#F78E04;gradientDirection=north;fillColor=#D05C17;strokeColor=#ffffff;dashed=0;verticalLabelPosition=bottom;verticalAlign=top;align=center;html=1;fontSize=12;fontStyle=0;aspect=fixed;shape=mxgraph.aws4.resourceIcon;resIcon=mxgraph.aws4.lambda;" parent="1" vertex="1">
          <mxGeometry x="362" y="310" width="78" height="78" as="geometry" />
        </mxCell>
        <mxCell id="a2bQ8DpLGYZSekiH0dF5-3" value="" style="endArrow=classic;html=1;rounded=0;" parent="1" target="a2bQ8DpLGYZSekiH0dF5-2" edge="1">
          <mxGeometry width="50" height="50" relative="1" as="geometry">
            <mxPoint x="320" y="460" as="sourcePoint" />
            <mxPoint x="371" y="388" as="targetPoint" />
          </mxGeometry>
        </mxCell>
        <mxCell id="a2bQ8DpLGYZSekiH0dF5-6" value="" style="endArrow=classic;html=1;rounded=0;exitX=0.75;exitY=1;exitDx=0;exitDy=0;exitPerimeter=0;" parent="1" source="a2bQ8DpLGYZSekiH0dF5-2" target="jiv7oWGwMIpdENpBrjZ7-15" edge="1">
          <mxGeometry width="50" height="50" relative="1" as="geometry">
            <mxPoint x="440" y="360" as="sourcePoint" />
            <mxPoint x="510" y="349" as="targetPoint" />
          </mxGeometry>
        </mxCell>
        <mxCell id="a2bQ8DpLGYZSekiH0dF5-11" value="Delete instance" style="text;html=1;strokeColor=none;fillColor=none;align=center;verticalAlign=middle;whiteSpace=wrap;rounded=0;" parent="1" vertex="1">
          <mxGeometry x="380" y="810" width="60" height="30" as="geometry" />
        </mxCell>
        <mxCell id="AMD4flGlrui2Bb7o98Yn-1" value="" style="sketch=0;points=[[0,0,0],[0.25,0,0],[0.5,0,0],[0.75,0,0],[1,0,0],[0,1,0],[0.25,1,0],[0.5,1,0],[0.75,1,0],[1,1,0],[0,0.25,0],[0,0.5,0],[0,0.75,0],[1,0.25,0],[1,0.5,0],[1,0.75,0]];outlineConnect=0;fontColor=#232F3E;gradientColor=#F78E04;gradientDirection=north;fillColor=#D05C17;strokeColor=#ffffff;dashed=0;verticalLabelPosition=bottom;verticalAlign=top;align=center;html=1;fontSize=12;fontStyle=0;aspect=fixed;shape=mxgraph.aws4.resourceIcon;resIcon=mxgraph.aws4.lambda;" vertex="1" parent="1">
          <mxGeometry x="330" y="644" width="78" height="78" as="geometry" />
        </mxCell>
        <mxCell id="AMD4flGlrui2Bb7o98Yn-2" value="" style="endArrow=classic;html=1;rounded=0;entryX=1;entryY=0.75;entryDx=0;entryDy=0;entryPerimeter=0;exitX=0;exitY=0.5;exitDx=0;exitDy=0;exitPerimeter=0;" edge="1" parent="1" source="jiv7oWGwMIpdENpBrjZ7-9" target="AMD4flGlrui2Bb7o98Yn-1">
          <mxGeometry width="50" height="50" relative="1" as="geometry">
            <mxPoint x="470" y="890" as="sourcePoint" />
            <mxPoint x="520" y="840" as="targetPoint" />
          </mxGeometry>
        </mxCell>
        <mxCell id="AMD4flGlrui2Bb7o98Yn-3" value="" style="outlineConnect=0;dashed=0;verticalLabelPosition=bottom;verticalAlign=top;align=center;html=1;shape=mxgraph.aws3.codedeploy;fillColor=#759C3E;gradientColor=none;" vertex="1" parent="1">
          <mxGeometry x="650" y="460" width="76.75" height="77.5" as="geometry" />
        </mxCell>
        <mxCell id="AMD4flGlrui2Bb7o98Yn-5" value="" style="endArrow=classic;html=1;rounded=0;exitX=0.5;exitY=1;exitDx=0;exitDy=0;exitPerimeter=0;" edge="1" parent="1" source="AMD4flGlrui2Bb7o98Yn-3" target="jiv7oWGwMIpdENpBrjZ7-10">
          <mxGeometry width="50" height="50" relative="1" as="geometry">
            <mxPoint x="643.25" y="510" as="sourcePoint" />
            <mxPoint x="693.25" y="460" as="targetPoint" />
          </mxGeometry>
        </mxCell>
        <mxCell id="AMD4flGlrui2Bb7o98Yn-6" value="" style="endArrow=classic;html=1;rounded=0;exitX=0.5;exitY=0;exitDx=0;exitDy=0;exitPerimeter=0;" edge="1" parent="1" source="AMD4flGlrui2Bb7o98Yn-1" target="jiv7oWGwMIpdENpBrjZ7-15">
          <mxGeometry width="50" height="50" relative="1" as="geometry">
            <mxPoint x="375" y="644" as="sourcePoint" />
            <mxPoint x="425" y="594" as="targetPoint" />
          </mxGeometry>
        </mxCell>
      </root>
    </mxGraphModel>
  </diagram>
</mxfile>
